<svg class="svg-icon" style="width: 1.1005859375em; height: 1em;vertical-align: middle;fill: currentColor;overflow: hidden;" viewBox="0 0 1127 1024" version="1.1" xmlns="http://www.w3.org/2000/svg"><path d="M0 512.7168c0 101.632 76.0832 185.9584 176.0256 202.24l35.2256 2.816 196.1984 0 0-102.0416L213.6576 615.7312 190.3104 613.888C122.8288 603.136 102.4 562.2784 99.4816 508.8768 96.6656 457.8304 144.9472 412.3136 229.12 383.2832c0 0-62.1568-82.7904 0-134.8096 62.1568-52.0192 151.9104 45.2608 151.9104 45.2608s112.4864-213.8112 279.7056-198.144c252.3648 23.7056 232.4992 302.9504 232.4992 302.9504s131.3792 22.4768 131.3792 110.336c0 98.048-111.872 106.8544-111.872 106.8544l-192.4096 0 0 102.0416 194.8672 0 35.2256-2.816C1050.3168 698.6752 1126.4 614.3488 1126.4 512.7168c0-89.2928-58.7776-165.3248-140.8512-193.4336C982.5792 142.4384 833.9968 0 651.2128 0c-131.84 0-245.8624 74.0864-300.3392 181.76C325.12 154.112 287.8464 136.704 246.3744 136.704c-77.7728 0-140.8 61.2352-140.8 136.704 0 19.712 4.3008 38.4512 11.9808 55.3472C47.9232 362.2912 0 432.0768 0 512.7168z"  /><path d="M614.4 1024 614.4 439.3472 819.2 563.2 819.2 460.8 563.2 307.2 307.2 460.8 307.2 563.2 512 439.3472 512 1024Z"  /></svg>